<svg width="49" height="54" viewBox="0 0 49 54" fill="none" xmlns="http://www.w3.org/2000/svg">
<path d="M42.0312 37.3262L37.0782 44.4424L33.5829 41.5738C33.2059 41.2623 32.6474 41.3189 32.3376 41.696C32.0269 42.0739 32.0818 42.6324 32.4606 42.9413L36.6967 46.4189C36.8551 46.5499 37.0543 46.6198 37.2578 46.6198C37.2977 46.6198 37.3384 46.6171 37.3791 46.6109C37.6234 46.5773 37.8429 46.4428 37.9845 46.2401L43.4845 38.337C43.7633 37.936 43.6651 37.3846 43.2633 37.1049C42.8614 36.8244 42.3109 36.9244 42.0312 37.3262Z" fill="#FCC028"/>
<path d="M38.3328 30.7331V6.79019C38.3328 6.30073 37.9363 5.90509 37.4477 5.90509H30.3669V4.13489C30.3669 3.64543 29.9703 3.24979 29.4818 3.24979H24.1712V1.47958C24.1712 0.990123 23.7746 0.594482 23.2861 0.594482H15.3202C14.8316 0.594482 14.4351 0.990123 14.4351 1.47958V3.24979H9.12445C8.63587 3.24979 8.23935 3.64543 8.23935 4.13489V5.90509H1.15854C0.669963 5.90509 0.273438 6.30073 0.273438 6.79019V51.0452C0.273438 51.5347 0.669963 51.9303 1.15854 51.9303H31.344C33.116 53.0456 35.2048 53.7005 37.4477 53.7005C43.7921 53.7005 48.954 48.5386 48.954 42.1942C48.954 36.1481 44.2638 31.1871 38.3328 30.7331ZM16.2053 2.36468H22.401V4.13489V5.90509H16.2053V4.13489V2.36468ZM10.0095 5.01999H14.4351V6.79019C14.4351 7.27965 14.8316 7.67529 15.3202 7.67529H23.2861C23.7746 7.67529 24.1712 7.27965 24.1712 6.79019V5.01999H28.5967V6.79019V8.56039H10.0095V6.79019V5.01999ZM2.04364 50.1601V7.67529H8.23935V9.44549C8.23935 9.93495 8.63587 10.3306 9.12445 10.3306H29.4818C29.9703 10.3306 30.3669 9.93495 30.3669 9.44549V7.67529H36.5626V30.7216C36.5121 30.7251 36.4634 30.7357 36.413 30.7401C36.2404 30.7561 36.0705 30.7809 35.9005 30.8048C35.6978 30.8322 35.4943 30.8596 35.2951 30.8968C35.1243 30.9296 34.9579 30.9703 34.7897 31.0101C34.5959 31.0561 34.4021 31.103 34.2126 31.1588C34.0471 31.2075 33.8851 31.2632 33.7232 31.319C33.5373 31.3827 33.3532 31.4482 33.1718 31.5217C33.0133 31.5854 32.8575 31.6544 32.7018 31.7253C32.5247 31.8058 32.3504 31.889 32.1787 31.9775C32.0273 32.0554 31.8786 32.1377 31.7317 32.2227C31.5653 32.3183 31.4016 32.4174 31.2405 32.5218C31.0971 32.6139 30.9563 32.7086 30.8183 32.8069C30.6616 32.9175 30.5094 33.0326 30.3589 33.1512C30.2261 33.2556 30.0951 33.3609 29.9677 33.4707C29.8216 33.5964 29.68 33.7265 29.5411 33.8592C29.4198 33.9743 29.2994 34.0902 29.1826 34.2106C29.0481 34.3496 28.9197 34.4939 28.7923 34.6399C28.6825 34.7656 28.5728 34.8904 28.4692 35.0205C28.3471 35.1727 28.2329 35.3303 28.1187 35.4887C28.0222 35.6232 27.924 35.756 27.8328 35.895C27.724 36.0605 27.6248 36.2313 27.5239 36.4021C27.4416 36.5438 27.3566 36.6827 27.2796 36.827C27.1849 37.0067 27.1009 37.1916 27.015 37.3757C26.9477 37.5218 26.876 37.6652 26.8141 37.8148C26.7344 38.0086 26.6663 38.2077 26.5972 38.406C26.545 38.5538 26.4884 38.6999 26.4423 38.8503C26.3777 39.0627 26.3282 39.2805 26.2759 39.4973C26.2414 39.6416 26.1998 39.7823 26.1697 39.9284C26.121 40.1718 26.0892 40.4214 26.0564 40.6701C26.0396 40.7958 26.0148 40.9179 26.0016 41.0445C25.9617 41.4242 25.9414 41.8066 25.9414 42.1942C25.9414 42.5793 25.9617 42.9616 25.9998 43.3396C26.0139 43.4829 26.0423 43.621 26.0617 43.7635C26.0936 43.9963 26.1219 44.2291 26.168 44.4583C26.1989 44.6132 26.2432 44.7637 26.2804 44.9168C26.3317 45.1283 26.3795 45.3408 26.4432 45.5488C26.4866 45.6895 26.5406 45.8258 26.5893 45.9648C26.6636 46.1798 26.7371 46.3958 26.8247 46.6056C26.8734 46.7233 26.9309 46.8357 26.984 46.9508C27.0858 47.1756 27.1894 47.3995 27.3053 47.6172C27.3566 47.712 27.4142 47.8031 27.4682 47.8961C27.5992 48.1253 27.7319 48.3519 27.8789 48.5714C27.9328 48.6519 27.9921 48.7281 28.0479 48.8077C28.2037 49.029 28.363 49.2485 28.5356 49.4591C28.5993 49.537 28.6684 49.6096 28.7339 49.6857C28.871 49.845 29.002 50.0079 29.1481 50.1601H2.04364ZM37.4477 51.9303C35.4491 51.9303 33.5895 51.3232 32.0424 50.2867C31.7406 50.0849 31.4555 49.8654 31.1821 49.6353C31.0865 49.5547 30.9962 49.4671 30.9041 49.3821C30.7298 49.2237 30.5607 49.0608 30.3996 48.8918C30.2961 48.7829 30.196 48.6723 30.0978 48.5599C29.9526 48.3935 29.8163 48.22 29.6836 48.0439C29.5986 47.9315 29.511 47.8217 29.4304 47.7058C29.2348 47.4216 29.0507 47.1296 28.8861 46.8269C28.848 46.756 28.8179 46.6808 28.7817 46.61C28.6524 46.3569 28.5321 46.1002 28.425 45.8364C28.3789 45.7214 28.3391 45.6036 28.2966 45.4859C28.2134 45.254 28.1373 45.0195 28.0709 44.7814C28.0373 44.6584 28.0045 44.5362 27.9753 44.4114C27.916 44.1592 27.87 43.9034 27.8311 43.6458C27.8142 43.5352 27.793 43.4263 27.7806 43.3139C27.739 42.9448 27.7116 42.5713 27.7116 42.1942C27.7116 36.8261 32.0795 32.4581 37.4477 32.4581C42.8158 32.4581 47.1838 36.8261 47.1838 42.1942C47.1838 47.5624 42.8158 51.9303 37.4477 51.9303Z" fill="black"/>
<path d="M6.46957 16.5263H17.9759C18.4645 16.5263 18.861 16.1307 18.861 15.6412C18.861 15.1517 18.4645 14.7561 17.9759 14.7561H6.46957C5.981 14.7561 5.58447 15.1517 5.58447 15.6412C5.58447 16.1307 5.981 16.5263 6.46957 16.5263Z" fill="black"/>
<path d="M17.9759 41.309H6.46957C5.981 41.309 5.58447 41.7047 5.58447 42.1941C5.58447 42.6836 5.981 43.0792 6.46957 43.0792H17.9759C18.4645 43.0792 18.861 42.6836 18.861 42.1941C18.861 41.7047 18.4645 41.309 17.9759 41.309Z" fill="black"/>
<path d="M6.46957 21.8369H32.1375C32.6261 21.8369 33.0226 21.4412 33.0226 20.9518C33.0226 20.4623 32.6261 20.0667 32.1375 20.0667H6.46957C5.981 20.0667 5.58447 20.4623 5.58447 20.9518C5.58447 21.4412 5.981 21.8369 6.46957 21.8369Z" fill="black"/>
<path d="M6.46957 32.4581H27.712C28.2006 32.4581 28.5971 32.0625 28.5971 31.573C28.5971 31.0836 28.2006 30.6879 27.712 30.6879H6.46957C5.981 30.6879 5.58447 31.0836 5.58447 31.573C5.58447 32.0625 5.981 32.4581 6.46957 32.4581Z" fill="black"/>
<path d="M23.2865 35.9985H6.46957C5.981 35.9985 5.58447 36.3941 5.58447 36.8836C5.58447 37.373 5.981 37.7687 6.46957 37.7687H23.2865C23.7751 37.7687 24.1716 37.373 24.1716 36.8836C24.1716 36.3941 23.7751 35.9985 23.2865 35.9985Z" fill="black"/>
<path d="M6.46957 27.1475H18.861C19.3496 27.1475 19.7461 26.7519 19.7461 26.2624C19.7461 25.773 19.3496 25.3773 18.861 25.3773H6.46957C5.981 25.3773 5.58447 25.773 5.58447 26.2624C5.58447 26.7519 5.981 27.1475 6.46957 27.1475Z" fill="black"/>
<path d="M32.1374 25.3773H25.9417C25.4532 25.3773 25.0566 25.773 25.0566 26.2624C25.0566 26.7519 25.4532 27.1475 25.9417 27.1475H32.1374C32.626 27.1475 33.0225 26.7519 33.0225 26.2624C33.0225 25.773 32.626 25.3773 32.1374 25.3773Z" fill="black"/>
</svg>
