<svg width="50" height="53" viewBox="0 0 50 53" fill="none" xmlns="http://www.w3.org/2000/svg">
<path d="M43.9828 37.9011L35.7183 35.8393C35.6874 35.7928 35.6535 35.7479 35.6131 35.7075L33.1514 33.2448V30.8873C33.3563 30.6791 33.5569 30.4629 33.7521 30.2375C36.049 27.585 37.43 24.0114 37.6409 20.1751C37.6493 20.0212 37.6571 19.8676 37.6648 19.7141C37.6904 19.2065 37.7146 18.7271 37.7631 18.2434L38.5781 10.0923C38.83 7.57273 38.0001 5.05117 36.3012 3.17375C34.6022 1.29622 32.1754 0.219482 29.6434 0.219482H20.5079C17.9758 0.219482 15.5492 1.29622 13.8501 3.17364C12.151 5.05106 11.3212 7.57285 11.573 10.0923L12.3875 18.2378C12.4361 18.7234 12.4606 19.2068 12.4865 19.7187C12.4941 19.8708 12.5018 20.023 12.5102 20.1751C12.721 24.0114 14.1021 27.585 16.399 30.2375C16.594 30.4629 16.7947 30.6789 16.9996 30.8873V33.2448L14.5378 35.7074C14.4984 35.7468 14.4652 35.7903 14.4349 35.8355L6.16803 37.9012C2.66473 38.777 0.735352 40.9272 0.735352 43.9556V49.8601C0.735352 51.3237 1.92605 52.5144 3.38963 52.5144H46.7616C48.2252 52.5144 49.4159 51.3237 49.4159 49.8601V43.9555C49.4159 40.9272 47.4865 38.777 43.9828 37.9011V37.9011ZM24.172 47.0929H25.9792C26.0422 47.0929 26.1045 47.0898 26.1665 47.0855L26.8022 50.8202H23.3491L23.9848 47.0855C24.0468 47.0898 24.109 47.0929 24.172 47.0929V47.0929ZM26.9393 44.4386C26.9393 44.968 26.5086 45.3987 25.9792 45.3987H24.172C23.6427 45.3987 23.212 44.968 23.212 44.4386V43.0848L25.0756 41.8424L26.9393 43.0848V44.4386ZM18.6941 32.3398C20.6103 33.7097 22.8022 34.4427 25.0756 34.4427C27.349 34.4427 29.5409 33.7097 31.4572 32.3398V33.2448L25.0756 39.6263L18.6941 33.2448V32.3398ZM28.2611 41.9298C28.2602 41.9292 28.2593 41.9287 28.2584 41.928L26.4053 40.6926L32.3042 34.7936L33.9647 36.4548C33.4044 37.4658 32.0885 39.8341 30.2305 43.1752C30.227 43.1815 30.2196 43.1946 30.1988 43.1997C30.1749 43.2055 30.1577 43.1941 30.1521 43.1904L28.2611 41.9298ZM15.1063 4.31046C16.4847 2.78724 18.4536 1.9137 20.5079 1.9137H29.6434C31.6978 1.9137 33.6666 2.78724 35.0451 4.31046C36.4235 5.83356 37.0968 7.8795 36.8924 9.92352L36.3765 15.0816C35.2319 12.3539 33.9655 10.6067 33.891 10.505C33.621 10.1367 33.1074 10.0488 32.7303 10.3063C30.5041 11.8261 20.5892 12.0196 16.9559 11.9661C16.7108 11.9614 16.476 12.0651 16.3125 12.2479C15.2743 13.4066 14.4576 14.7095 13.8518 15.8519L13.259 9.92363C13.0545 7.87961 13.7279 5.83367 15.1063 4.31046V4.31046ZM14.202 20.0822C14.1938 19.9324 14.1862 19.7827 14.1786 19.633C14.1734 19.5294 14.168 19.4246 14.1625 19.3197C14.345 18.8015 15.4039 15.9453 17.3256 13.6647C19.6696 13.6852 29.2434 13.6699 32.9255 12.1083C33.6515 13.2536 35.1822 15.9346 35.9897 19.3002C35.9838 19.4102 35.9783 19.52 35.9727 19.6286C35.9651 19.7796 35.9575 19.9307 35.9491 20.0822C35.5588 27.1848 30.7825 32.7485 25.0756 32.7485C19.3687 32.7485 14.5925 27.1848 14.202 20.0822V20.0822ZM17.8471 34.7936L23.746 40.6926L21.8925 41.9282C21.8919 41.9287 21.8911 41.9292 21.8904 41.9297L19.9992 43.1905C19.9936 43.1944 19.9765 43.2057 19.9524 43.1998C19.9316 43.1948 19.9243 43.1816 19.9209 43.1754C18.0629 39.8342 16.747 37.4659 16.1866 36.4549L17.8471 34.7936V34.7936ZM2.42957 49.8601V43.9556C2.42957 41.7171 3.82561 40.2331 6.57883 39.5448L14.821 37.4855C15.3094 38.3674 16.3221 40.1897 18.4403 43.9988C18.6763 44.4232 19.0823 44.7323 19.5537 44.8463C19.6888 44.8791 19.8263 44.8951 19.9634 44.8951C20.3072 44.8951 20.6482 44.7939 20.939 44.6001L21.5179 44.2142V44.4385C21.5179 45.2135 21.8519 45.9119 22.3834 46.3977L21.6306 50.8202H10.5618V46.2458C10.5618 45.7779 10.1825 45.3987 9.71471 45.3987C9.24688 45.3987 8.8676 45.7779 8.8676 46.2458V50.8202H3.38963C2.86024 50.8202 2.42957 50.3895 2.42957 49.8601V49.8601ZM47.7217 49.8601C47.7217 50.3895 47.291 50.8202 46.7616 50.8202H41.2837V46.2458C41.2837 45.7779 40.9044 45.3987 40.4365 45.3987C39.9687 45.3987 39.5894 45.7779 39.5894 46.2458V50.8202H28.5207L27.7679 46.3978C28.2994 45.9121 28.6334 45.2137 28.6334 44.4386V44.2143L29.2122 44.6002C29.5031 44.7942 29.8441 44.8952 30.1879 44.8952C30.325 44.8952 30.4626 44.8791 30.5975 44.8465C31.069 44.7323 31.4749 44.4234 31.711 43.9988C33.8269 40.1937 34.8398 38.3713 35.3287 37.4882L43.5722 39.5448C46.3257 40.2331 47.7217 41.7171 47.7217 43.9555V49.8601Z" fill="black"/>
</svg>
